<?xml version="1.0" encoding="UTF-8" standalone="no"?>
<!-- Generator: Adobe Illustrator 19.0.0, SVG Export Plug-In . SVG Version: 6.00 Build 0)  -->

<svg
   xmlns:dc="http://purl.org/dc/elements/1.1/"
   xmlns:cc="http://creativecommons.org/ns#"
   xmlns:rdf="http://www.w3.org/1999/02/22-rdf-syntax-ns#"
   xmlns:svg="http://www.w3.org/2000/svg"
   xmlns="http://www.w3.org/2000/svg"
   xmlns:sodipodi="http://sodipodi.sourceforge.net/DTD/sodipodi-0.dtd"
   xmlns:inkscape="http://www.inkscape.org/namespaces/inkscape"
   version="1.1"
   id="Layer_1"
   x="0px"
   y="0px"
   viewBox="0 0 512 512"
   style="enable-background:new 0 0 512 512;"
   xml:space="preserve"
   sodipodi:docname="hacksaw.svg"
   inkscape:export-filename="/home/jrewerts/Downloads/hacksaw_16.png"
   inkscape:export-xdpi="3"
   inkscape:export-ydpi="3"
   inkscape:version="0.92.2 (unknown)"><metadata
     id="metadata53"><rdf:RDF><cc:Work
         rdf:about=""><dc:format>image/svg+xml</dc:format><dc:type
           rdf:resource="http://purl.org/dc/dcmitype/StillImage" /></cc:Work></rdf:RDF></metadata><defs
     id="defs51" /><sodipodi:namedview
     pagecolor="#ffffff"
     bordercolor="#666666"
     borderopacity="1"
     objecttolerance="10"
     gridtolerance="10"
     guidetolerance="10"
     inkscape:pageopacity="0"
     inkscape:pageshadow="2"
     inkscape:window-width="1855"
     inkscape:window-height="1056"
     id="namedview49"
     showgrid="false"
     inkscape:zoom="0.4609375"
     inkscape:cx="-109.55932"
     inkscape:cy="256"
     inkscape:window-x="65"
     inkscape:window-y="24"
     inkscape:window-maximized="1"
     inkscape:current-layer="Layer_1" /><path
     style="fill:#4C6460;"
     d="M510.138,225.101C494.879,98.289,386.925,0.001,256,0.001c-141.385,0-256,114.616-256,256  c0,131.809,99.621,240.334,227.673,254.433L510.138,225.101z"
     id="path2" /><path
     style="fill:#263230;"
     d="M512,256.001c0-10.459-0.643-20.768-1.862-30.899l-42.66-42.66L44.522,327.281l183.151,183.151  c9.303,1.024,18.75,1.567,28.327,1.567C397.385,512.001,512,397.385,512,256.001z"
     id="path4" /><polygon
     style="fill:#889391;"
     points="200.348,285.038 211.478,327.281 227.785,318.429 244.58,329.559 261.369,318.429   278.157,329.559 294.957,318.429 311.756,329.559 328.544,318.429 345.333,329.559 362.128,318.429 378.435,327.281   378.435,307.299 "
     id="polygon6" /><polygon
     style="fill:#B0B7B6;"
     points="44.522,307.299 44.522,327.281 60.829,318.429 77.624,329.559 94.413,318.429   111.201,329.559 128,318.429 144.799,329.559 161.587,318.429 178.376,329.559 195.171,318.429 211.478,327.281 211.478,285.038 "
     id="polygon8" /><polygon
     style="fill:#C3C9C8;"
     points="378.435,307.299 411.826,204.898 333.913,182.638 211.478,182.638 189.217,244.968   211.478,307.299 "
     id="polygon10" /><rect
     x="44.522"
     y="182.64"
     style="fill:#FFFFFF;"
     width="166.957"
     height="124.661"
     id="rect12" /><path
     style="fill:#F63341;"
     d="M333.913,182.442v22.261c0,24.487,20.035,44.522,44.522,44.522V307.3h89.043V182.442H333.913z   M445.217,285.038h-22.261v-80.336h22.261V285.038z"
     id="path14" /><circle
     style="fill:#263230;"
     cx="367.304"
     cy="215.831"
     r="11.13"
     id="circle16" /><g
     id="g18" /><g
     id="g20" /><g
     id="g22" /><g
     id="g24" /><g
     id="g26" /><g
     id="g28" /><g
     id="g30" /><g
     id="g32" /><g
     id="g34" /><g
     id="g36" /><g
     id="g38" /><g
     id="g40" /><g
     id="g42" /><g
     id="g44" /><g
     id="g46" /></svg>